<?xml version="1.0" encoding="UTF-8" standalone="no"?>
<!-- Created with Inkscape (http://www.inkscape.org/) -->

<svg
   xmlns:dc="http://purl.org/dc/elements/1.1/"
   xmlns:cc="http://creativecommons.org/ns#"
   xmlns:rdf="http://www.w3.org/1999/02/22-rdf-syntax-ns#"
   xmlns:svg="http://www.w3.org/2000/svg"
   xmlns="http://www.w3.org/2000/svg"
   xmlns:sodipodi="http://sodipodi.sourceforge.net/DTD/sodipodi-0.dtd"
   xmlns:inkscape="http://www.inkscape.org/namespaces/inkscape"
   width="40"
   height="40"
   viewBox="0 0 10.583333 10.583333"
   version="1.1"
   id="svg8"
   inkscape:version="0.92.4 (5da689c313, 2019-01-14)"
   sodipodi:docname="backToListHvr.svg">
  <defs
     id="defs2" />
  <sodipodi:namedview
     id="base"
     pagecolor="#ffffff"
     bordercolor="#666666"
     borderopacity="1.0"
     inkscape:pageopacity="0.0"
     inkscape:pageshadow="2"
     inkscape:zoom="11.2"
     inkscape:cx="1.5433639"
     inkscape:cy="26.283135"
     inkscape:document-units="mm"
     inkscape:current-layer="layer1"
     showgrid="false"
     inkscape:lockguides="false"
     inkscape:snap-bbox="true"
     inkscape:bbox-paths="true"
     inkscape:bbox-nodes="true"
     inkscape:snap-bbox-edge-midpoints="true"
     inkscape:object-paths="true"
     inkscape:snap-intersection-paths="true"
     inkscape:snap-bbox-midpoints="true"
     inkscape:snap-smooth-nodes="true"
     inkscape:snap-global="false"
     inkscape:showpageshadow="false"
     inkscape:snap-page="true"
     units="px"
     inkscape:window-width="1920"
     inkscape:window-height="1001"
     inkscape:window-x="-9"
     inkscape:window-y="-9"
     inkscape:window-maximized="1" />
  <metadata
     id="metadata5">
    <rdf:RDF>
      <cc:Work
         rdf:about="">
        <dc:format>image/svg+xml</dc:format>
        <dc:type
           rdf:resource="http://purl.org/dc/dcmitype/StillImage" />
        <dc:title></dc:title>
      </cc:Work>
    </rdf:RDF>
  </metadata>
  <g
     inkscape:label="Layer 1"
     inkscape:groupmode="layer"
     id="layer1"
     transform="translate(0,-286.41667)">
    <path
       style="opacity:1;fill:#c5cae9;fill-opacity:1;stroke:none;stroke-width:0.79400003;stroke-linecap:round;stroke-linejoin:miter;stroke-miterlimit:4;stroke-dasharray:none;stroke-dashoffset:0;stroke-opacity:1;paint-order:fill markers stroke"
       d="m 1.22593,287.99462 h 6.862828 c 0.44005,0 0.79431,0.35426 0.79431,0.79431 0,0.44004 -0.35426,0.79431 -0.79431,0.79431 H 1.22593 c -0.44004,0 -0.7943,-0.35427 -0.7943,-0.79431 0,-0.44005 0.35426,-0.79431 0.7943,-0.79431 z"
       id="rect815"
       inkscape:connector-curvature="0" />
    <path
       style="opacity:1;fill:#c5cae9;fill-opacity:1;stroke:none;stroke-width:0.79400003;stroke-linecap:round;stroke-linejoin:miter;stroke-miterlimit:4;stroke-dasharray:none;stroke-dashoffset:0;stroke-opacity:1;paint-order:fill markers stroke"
       d="m 1.22593,290.6635 h 6.862828 c 0.44005,0 0.79431,0.35426 0.79431,0.79431 0,0.44005 -0.35426,0.79431 -0.79431,0.79431 H 1.22593 c -0.44004,0 -0.7943,-0.35426 -0.7943,-0.79431 0,-0.44005 0.35426,-0.79431 0.7943,-0.79431 z"
       id="rect817"
       inkscape:connector-curvature="0" />
    <path
       style="opacity:1;fill:#c5cae9;fill-opacity:1;stroke:none;stroke-width:0.79400003;stroke-linecap:round;stroke-linejoin:miter;stroke-miterlimit:4;stroke-dasharray:none;stroke-dashoffset:0;stroke-opacity:1;paint-order:fill markers stroke"
       d="m 1.22593,293.33238 h 6.862828 c 0.44005,0 0.79431,0.35425 0.79431,0.79431 0,0.44004 -0.35426,0.79429 -0.79431,0.79429 H 1.22593 c -0.44004,0 -0.7943,-0.35425 -0.7943,-0.79429 0,-0.44006 0.35426,-0.79431 0.7943,-0.79431 z"
       id="rect819"
       inkscape:connector-curvature="0" />
    <path
       style="opacity:1;fill:#3f51b5;fill-opacity:1;stroke:none;stroke-width:0.13229162;stroke-linecap:round;stroke-linejoin:round;stroke-miterlimit:4;stroke-dasharray:none;stroke-dashoffset:0;stroke-opacity:1;paint-order:fill markers stroke"
       d="m 5.876318,289.90981 c 0.0828,0.42979 0.36747,1.79363 1.7871,2.54269 -0.23218,0.13637 -0.64073,0.42164 -0.60727,0.51134 0.39859,1.06824 1.69921,1.34362 3.42965,0.62849 -0.54034,2.00823 -2.36504,2.75608 -3.67626,2.52391 -0.90764,-0.16073 -1.68987,-1.09171 -1.76592,-1.41486 -0.109708,0.20026 -0.252968,0.73003 -0.163128,1.0032 -1.55418,-1.9425 0.305598,-5.2382 0.995818,-5.79482 z"
       id="path1966"
       inkscape:connector-curvature="0"
       sodipodi:nodetypes="ccccscccc" />
  </g>
</svg>
