<?xml version="1.0" encoding="UTF-8" standalone="no"?>
<!-- Created with Inkscape (http://www.inkscape.org/) -->

<svg
   xmlns:dc="http://purl.org/dc/elements/1.1/"
   xmlns:cc="http://creativecommons.org/ns#"
   xmlns:rdf="http://www.w3.org/1999/02/22-rdf-syntax-ns#"
   xmlns:svg="http://www.w3.org/2000/svg"
   xmlns="http://www.w3.org/2000/svg"
   xmlns:sodipodi="http://sodipodi.sourceforge.net/DTD/sodipodi-0.dtd"
   xmlns:inkscape="http://www.inkscape.org/namespaces/inkscape"
   width="40"
   height="40"
   viewBox="0 0 10.583333 10.583333"
   version="1.1"
   id="svg8"
   inkscape:version="0.92.4 (5da689c313, 2019-01-14)"
   sodipodi:docname="backToList.svg">
  <defs
     id="defs2" />
  <sodipodi:namedview
     id="base"
     pagecolor="#ffffff"
     bordercolor="#666666"
     borderopacity="1.0"
     inkscape:pageopacity="0.0"
     inkscape:pageshadow="2"
     inkscape:zoom="7.9195959"
     inkscape:cx="32.516696"
     inkscape:cy="15.765669"
     inkscape:document-units="mm"
     inkscape:current-layer="layer1"
     showgrid="false"
     inkscape:lockguides="false"
     inkscape:snap-bbox="true"
     inkscape:bbox-paths="true"
     inkscape:bbox-nodes="true"
     inkscape:snap-bbox-edge-midpoints="true"
     inkscape:object-paths="true"
     inkscape:snap-intersection-paths="true"
     inkscape:snap-bbox-midpoints="true"
     inkscape:snap-smooth-nodes="true"
     inkscape:snap-global="false"
     inkscape:showpageshadow="false"
     inkscape:snap-page="true"
     units="px"
     inkscape:window-width="1920"
     inkscape:window-height="1001"
     inkscape:window-x="-9"
     inkscape:window-y="-9"
     inkscape:window-maximized="1" />
  <metadata
     id="metadata5">
    <rdf:RDF>
      <cc:Work
         rdf:about="">
        <dc:format>image/svg+xml</dc:format>
        <dc:type
           rdf:resource="http://purl.org/dc/dcmitype/StillImage" />
        <dc:title></dc:title>
      </cc:Work>
    </rdf:RDF>
  </metadata>
  <g
     inkscape:label="Layer 1"
     inkscape:groupmode="layer"
     id="layer1"
     transform="translate(0,-286.41667)">
    <rect
       style="opacity:1;fill:none;fill-opacity:1;stroke:none;stroke-width:7.9375;stroke-linecap:round;stroke-linejoin:miter;stroke-miterlimit:4;stroke-dasharray:none;stroke-dashoffset:0;stroke-opacity:1;paint-order:fill markers stroke"
       id="rect846"
       width="10.583346"
       height="10.583346"
       x="0"
       y="286.41666" />
    <g
       id="g852"
       transform="translate(104.94648,11.777737)">
      <path
         inkscape:connector-curvature="0"
         id="rect815"
         d="m -103.72055,276.21688 h 6.862828 c 0.44005,0 0.79431,0.35426 0.79431,0.79431 0,0.44004 -0.35426,0.79431 -0.79431,0.79431 h -6.862828 c -0.44004,0 -0.7943,-0.35427 -0.7943,-0.79431 0,-0.44005 0.35426,-0.79431 0.7943,-0.79431 z"
         style="opacity:1;fill:#c5cae9;fill-opacity:1;stroke:none;stroke-width:0.79400003;stroke-linecap:round;stroke-linejoin:miter;stroke-miterlimit:4;stroke-dasharray:none;stroke-dashoffset:0;stroke-opacity:1;paint-order:fill markers stroke" />
      <path
         inkscape:connector-curvature="0"
         id="rect817"
         d="m -103.72055,278.88576 h 6.862828 c 0.44005,0 0.79431,0.35426 0.79431,0.79431 0,0.44005 -0.35426,0.79431 -0.79431,0.79431 h -6.862828 c -0.44004,0 -0.7943,-0.35426 -0.7943,-0.79431 0,-0.44005 0.35426,-0.79431 0.7943,-0.79431 z"
         style="opacity:1;fill:#c5cae9;fill-opacity:1;stroke:none;stroke-width:0.79400003;stroke-linecap:round;stroke-linejoin:miter;stroke-miterlimit:4;stroke-dasharray:none;stroke-dashoffset:0;stroke-opacity:1;paint-order:fill markers stroke" />
      <path
         inkscape:connector-curvature="0"
         id="rect819"
         d="m -103.72055,281.55464 h 6.862828 c 0.44005,0 0.79431,0.35425 0.79431,0.79431 0,0.44004 -0.35426,0.79429 -0.79431,0.79429 h -6.862828 c -0.44004,0 -0.7943,-0.35425 -0.7943,-0.79429 0,-0.44006 0.35426,-0.79431 0.7943,-0.79431 z"
         style="opacity:1;fill:#c5cae9;fill-opacity:1;stroke:none;stroke-width:0.79400003;stroke-linecap:round;stroke-linejoin:miter;stroke-miterlimit:4;stroke-dasharray:none;stroke-dashoffset:0;stroke-opacity:1;paint-order:fill markers stroke" />
      <path
         sodipodi:nodetypes="ccccscccc"
         inkscape:connector-curvature="0"
         id="path1966"
         d="m -99.070162,278.13207 c 0.0828,0.42979 0.36747,1.79363 1.7871,2.54269 -0.23218,0.13637 -0.64073,0.42164 -0.60727,0.51134 0.39859,1.06824 1.69921,1.34362 3.42965,0.62849 -0.54034,2.00823 -2.36504,2.75608 -3.67626,2.52391 -0.90764,-0.16073 -1.68987,-1.09171 -1.76592,-1.41486 -0.109708,0.20026 -0.252968,0.73003 -0.163128,1.0032 -1.55418,-1.9425 0.305598,-5.2382 0.995818,-5.79482 z"
         style="opacity:1;fill:#939cd6;fill-opacity:1;stroke:none;stroke-width:0.13229162;stroke-linecap:round;stroke-linejoin:round;stroke-miterlimit:4;stroke-dasharray:none;stroke-dashoffset:0;stroke-opacity:1;paint-order:fill markers stroke" />
    </g>
  </g>
</svg>
