<?xml version="1.0" encoding="UTF-8" standalone="no"?>
<!-- Created with Inkscape (http://www.inkscape.org/) -->

<svg
   xmlns:dc="http://purl.org/dc/elements/1.1/"
   xmlns:cc="http://creativecommons.org/ns#"
   xmlns:rdf="http://www.w3.org/1999/02/22-rdf-syntax-ns#"
   xmlns:svg="http://www.w3.org/2000/svg"
   xmlns="http://www.w3.org/2000/svg"
   xmlns:sodipodi="http://sodipodi.sourceforge.net/DTD/sodipodi-0.dtd"
   xmlns:inkscape="http://www.inkscape.org/namespaces/inkscape"
   width="50"
   height="50"
   viewBox="0 0 13.229166 13.229167"
   version="1.1"
   id="svg8"
   inkscape:version="0.92.4 (5da689c313, 2019-01-14)"
   sodipodi:docname="sortUp.svg">
  <defs
     id="defs2" />
  <sodipodi:namedview
     id="base"
     pagecolor="#ffffff"
     bordercolor="#666666"
     borderopacity="1.0"
     inkscape:pageopacity="0.0"
     inkscape:pageshadow="2"
     inkscape:zoom="7.9195959"
     inkscape:cx="-7.5630214"
     inkscape:cy="33.485795"
     inkscape:document-units="mm"
     inkscape:current-layer="layer1"
     showgrid="false"
     inkscape:snap-bbox="true"
     inkscape:bbox-nodes="true"
     inkscape:bbox-paths="true"
     inkscape:snap-bbox-edge-midpoints="true"
     inkscape:snap-bbox-midpoints="true"
     inkscape:snap-object-midpoints="true"
     inkscape:snap-center="true"
     inkscape:object-paths="true"
     inkscape:snap-intersection-paths="true"
     inkscape:snap-smooth-nodes="true"
     inkscape:snap-global="true"
     showguides="false"
     inkscape:snap-midpoints="true"
     units="px"
     inkscape:showpageshadow="false"
     inkscape:snap-page="true"
     inkscape:window-width="1920"
     inkscape:window-height="1001"
     inkscape:window-x="-9"
     inkscape:window-y="-9"
     inkscape:window-maximized="1" />
  <metadata
     id="metadata5">
    <rdf:RDF>
      <cc:Work
         rdf:about="">
        <dc:format>image/svg+xml</dc:format>
        <dc:type
           rdf:resource="http://purl.org/dc/dcmitype/StillImage" />
        <dc:title></dc:title>
      </cc:Work>
    </rdf:RDF>
  </metadata>
  <g
     inkscape:label="Layer 1"
     inkscape:groupmode="layer"
     id="layer1"
     transform="translate(0,-283.77082)">
    <rect
       style="opacity:1;fill:none;fill-opacity:1;stroke:#c8ccea;stroke-width:0.63335693;stroke-linecap:round;stroke-linejoin:miter;stroke-miterlimit:4;stroke-dasharray:none;stroke-dashoffset:0;stroke-opacity:1;paint-order:fill markers stroke"
       id="rect965"
       width="12.595809"
       height="12.595809"
       x="0.31668314"
       y="284.08749"
       ry="2.999002" />
    <g
       aria-label="9"
       style="font-style:normal;font-variant:normal;font-weight:normal;font-stretch:normal;font-size:5.6538682px;line-height:1.25;font-family:Haettenschweiler;-inkscape-font-specification:'Haettenschweiler, Normal';font-variant-ligatures:normal;font-variant-caps:normal;font-variant-numeric:normal;font-feature-settings:normal;text-align:start;letter-spacing:0px;word-spacing:0px;writing-mode:lr-tb;text-anchor:start;fill:#939cd6;fill-opacity:1;stroke:none;stroke-width:0.14134666"
       id="text899"
       transform="matrix(1.196895,0,0,1.196895,-128.41217,138.61693)" />
    <path
       d="m 7.1091868,287.95746 h 1.0143924 v 1.20604 c 0,0.10353 0.058409,0.15531 0.1751297,0.15531 0.1145429,0 0.1718263,-0.0518 0.1718263,-0.15531 v -1.40759 c -0.074926,0.0794 -0.2148068,0.11897 -0.4196434,0.11897 -0.2775599,0 -0.5044553,-0.0661 -0.6806742,-0.19826 -0.1740165,-0.13437 -0.2610308,-0.3205 -0.2610308,-0.55841 v -1.10362 c 0,-0.27536 0.1090371,-0.48682 0.3271114,-0.63441 0.2180862,-0.14979 0.5033542,-0.2247 0.8558039,-0.2247 0.3568542,0 0.6443245,0.0738 0.8624107,0.22139 0.2202765,0.14759 0.3304148,0.35796 0.3304148,0.63111 v 3.05312 c 0,0.61239 -0.3998108,0.91858 -1.1994324,0.91858 -0.7842056,0 -1.1763084,-0.30399 -1.1763084,-0.91197 z m 1.3613484,-0.86571 v -1.13666 c 0,-0.10353 -0.057212,-0.15531 -0.1718263,-0.15531 -0.1166972,0 -0.1751297,0.0518 -0.1751297,0.15531 v 1.13666 c 0,0.10353 0.058409,0.1553 0.1751297,0.1553 0.1145429,0 0.1718263,-0.0518 0.1718263,-0.1553 z"
       style="font-style:normal;font-variant:normal;font-weight:normal;font-stretch:normal;font-size:5.6538682px;line-height:1.25;font-family:Haettenschweiler;-inkscape-font-specification:'Haettenschweiler, Normal';font-variant-ligatures:normal;font-variant-caps:normal;font-variant-numeric:normal;font-feature-settings:normal;text-align:start;letter-spacing:0px;word-spacing:0px;writing-mode:lr-tb;text-anchor:start;fill:#939cd6;fill-opacity:1;stroke:none;stroke-width:0.16917711"
       id="path985"
       inkscape:connector-curvature="0"
       sodipodi:nodetypes="ccssscscsscscsssscsssssss" />
    <path
       inkscape:connector-curvature="0"
       id="path975"
       style="font-style:normal;font-variant:normal;font-weight:normal;font-stretch:normal;font-size:3.10055041px;line-height:1.25;font-family:Haettenschweiler;-inkscape-font-specification:'Haettenschweiler, Normal';font-variant-ligatures:normal;font-variant-caps:normal;font-variant-numeric:normal;font-feature-settings:normal;text-align:start;letter-spacing:0px;word-spacing:0px;writing-mode:lr-tb;text-anchor:start;fill:#939cd6;fill-opacity:1;stroke:none;stroke-width:0.09277584"
       d="M 4.7341134,285.50442 H 4.2176891 v -0.37872 h 0.5164243 z m 0,2.21973 H 4.2176891 v -2.10376 h 0.5164243 z" />
    <path
       inkscape:connector-curvature="0"
       id="path977"
       style="font-style:normal;font-variant:normal;font-weight:normal;font-stretch:normal;font-size:3.10055041px;line-height:1.25;font-family:Haettenschweiler;-inkscape-font-specification:'Haettenschweiler, Normal';font-variant-ligatures:normal;font-variant-caps:normal;font-variant-numeric:normal;font-feature-settings:normal;text-align:start;letter-spacing:0px;word-spacing:0px;writing-mode:lr-tb;text-anchor:start;fill:#939cd6;fill-opacity:1;stroke:none;stroke-width:0.09277584"
       d="M 6.0496446,287.72415 H 5.6600673 l -0.043447,-0.0706 q -0.1322809,0.0997 -0.3007917,0.0997 -0.1975116,0 -0.3370337,-0.0924 -0.1377147,-0.0924 -0.1377147,-0.25187 v -1.51124 q 0,-0.13409 0.1086781,-0.212 0.1105931,-0.0797 0.2663689,-0.0797 0.2138253,0 0.3189127,0.0779 v -0.55811 h 0.514617 z m -0.514617,-0.39321 v -1.30647 q 0,-0.0924 -0.08881,-0.0924 -0.090605,0 -0.090605,0.096 v 1.30285 q 0,0.096 0.090605,0.096 0.08881,0 0.08881,-0.096 z" />
    <g
       aria-label="1
"
       style="font-style:normal;font-variant:normal;font-weight:normal;font-stretch:normal;font-size:5.6538682px;line-height:1.25;font-family:Haettenschweiler;-inkscape-font-specification:'Haettenschweiler, Normal';font-variant-ligatures:normal;font-variant-caps:normal;font-variant-numeric:normal;font-feature-settings:normal;text-align:start;letter-spacing:0px;word-spacing:0px;writing-mode:lr-tb;text-anchor:start;fill:#939cd6;fill-opacity:1;stroke:none;stroke-width:0.14134666"
       id="text913"
       transform="matrix(1.196895,0,0,1.196895,-128.41216,138.61693)">
      <path
         d="m 114.82172,130.91345 h -0.86961 v -2.70344 -0.19803 h -0.33404 V 127.435 c 0.12699,0 0.23374,-0.0543 0.32024,-0.16288 0.0883,-0.10859 0.13251,-0.21441 0.13251,-0.31748 h 0.7509 z"
         style="font-style:normal;font-variant:normal;font-weight:normal;font-stretch:normal;font-size:5.6538682px;font-family:Haettenschweiler;-inkscape-font-specification:'Haettenschweiler, Normal';font-variant-ligatures:normal;font-variant-caps:normal;font-variant-numeric:normal;font-feature-settings:normal;text-align:start;writing-mode:lr-tb;text-anchor:start;fill:#939cd6;fill-opacity:1;stroke-width:0.14134666"
         id="path982"
         inkscape:connector-curvature="0"
         sodipodi:nodetypes="cccccccccc" />
    </g>
    <path
       inkscape:connector-curvature="0"
       style="opacity:1;fill:#939cd6;fill-opacity:1;stroke:none;stroke-width:0.5814122;stroke-linecap:round;stroke-linejoin:miter;stroke-miterlimit:4;stroke-dasharray:none;stroke-dashoffset:0;stroke-opacity:1;paint-order:fill markers stroke"
       d="m 5.1339869,288.6385 -1.9495505,2.83959 1.1992888,-0.12309 v 3.98137 H 5.8830038 V 291.355 l 1.1999112,0.12309 z"
       id="rect967" />
  </g>
</svg>
