<?xml version="1.0" encoding="UTF-8" standalone="no"?>
<!-- Created with Inkscape (http://www.inkscape.org/) -->

<svg
   xmlns:dc="http://purl.org/dc/elements/1.1/"
   xmlns:cc="http://creativecommons.org/ns#"
   xmlns:rdf="http://www.w3.org/1999/02/22-rdf-syntax-ns#"
   xmlns:svg="http://www.w3.org/2000/svg"
   xmlns="http://www.w3.org/2000/svg"
   xmlns:sodipodi="http://sodipodi.sourceforge.net/DTD/sodipodi-0.dtd"
   xmlns:inkscape="http://www.inkscape.org/namespaces/inkscape"
   width="50"
   height="50"
   viewBox="0 0 13.229166 13.229167"
   version="1.1"
   id="svg1692"
   inkscape:version="0.92.4 (5da689c313, 2019-01-14)"
   sodipodi:docname="sortUpHvr.svg">
  <defs
     id="defs1686" />
  <sodipodi:namedview
     id="base"
     pagecolor="#ffffff"
     bordercolor="#666666"
     borderopacity="1.0"
     inkscape:pageopacity="0.0"
     inkscape:pageshadow="2"
     inkscape:zoom="7.9195959"
     inkscape:cx="3.1405311"
     inkscape:cy="8.413267"
     inkscape:document-units="mm"
     inkscape:current-layer="layer1"
     showgrid="false"
     inkscape:window-width="1920"
     inkscape:window-height="1001"
     inkscape:window-x="-9"
     inkscape:window-y="-9"
     inkscape:window-maximized="1"
     units="px"
     inkscape:showpageshadow="false"
     inkscape:snap-page="true"
     inkscape:snap-smooth-nodes="true"
     inkscape:snap-midpoints="true"
     inkscape:snap-object-midpoints="true"
     inkscape:snap-center="true"
     inkscape:snap-intersection-paths="false"
     inkscape:snap-bbox="true"
     inkscape:bbox-paths="true"
     inkscape:bbox-nodes="true"
     inkscape:snap-bbox-edge-midpoints="true"
     inkscape:snap-bbox-midpoints="true" />
  <metadata
     id="metadata1689">
    <rdf:RDF>
      <cc:Work
         rdf:about="">
        <dc:format>image/svg+xml</dc:format>
        <dc:type
           rdf:resource="http://purl.org/dc/dcmitype/StillImage" />
        <dc:title></dc:title>
      </cc:Work>
    </rdf:RDF>
  </metadata>
  <g
     inkscape:label="Layer 1"
     inkscape:groupmode="layer"
     id="layer1"
     transform="translate(0,-283.77082)">
    <rect
       style="opacity:1;fill:none;fill-opacity:1;stroke:#c8ccea;stroke-width:0.63335693;stroke-linecap:round;stroke-linejoin:miter;stroke-miterlimit:4;stroke-dasharray:none;stroke-dashoffset:0;stroke-opacity:1;paint-order:fill markers stroke"
       id="rect965-0"
       width="12.595809"
       height="12.595809"
       x="0.31667846"
       y="284.08749"
       ry="2.9990022" />
    <path
       d="m 7.1091823,287.95747 h 1.0143924 v 1.20604 c 0,0.10353 0.058409,0.15531 0.1751298,0.15531 0.1145429,0 0.1718262,-0.0518 0.1718262,-0.15531 v -1.40759 c -0.074926,0.0794 -0.2148067,0.11897 -0.4196434,0.11897 -0.2775598,0 -0.5044554,-0.0661 -0.6806742,-0.19826 -0.1740165,-0.13437 -0.2610308,-0.3205 -0.2610308,-0.55841 v -1.10362 c 0,-0.27536 0.1090372,-0.48682 0.3271115,-0.63441 0.218086,-0.14979 0.5033542,-0.2247 0.8558038,-0.2247 0.3568541,0 0.6443244,0.0738 0.8624107,0.22139 0.2202765,0.14759 0.3304148,0.35796 0.3304148,0.63111 v 3.05312 c 0,0.61239 -0.3998108,0.91858 -1.1994324,0.91858 -0.7842057,0 -1.1763084,-0.30399 -1.1763084,-0.91197 z m 1.3613484,-0.86571 v -1.13666 c 0,-0.10353 -0.057212,-0.15531 -0.1718262,-0.15531 -0.1166974,0 -0.1751298,0.0518 -0.1751298,0.15531 v 1.13666 c 0,0.10353 0.058409,0.1553 0.1751298,0.1553 0.1145429,0 0.1718262,-0.0518 0.1718262,-0.1553 z"
       style="font-style:normal;font-variant:normal;font-weight:normal;font-stretch:normal;font-size:5.6538682px;line-height:1.25;font-family:Haettenschweiler;-inkscape-font-specification:'Haettenschweiler, Normal';font-variant-ligatures:normal;font-variant-caps:normal;font-variant-numeric:normal;font-feature-settings:normal;text-align:start;letter-spacing:0px;word-spacing:0px;writing-mode:lr-tb;text-anchor:start;fill:#3f51b5;fill-opacity:1;stroke:none;stroke-width:0.16917713"
       id="path985-5"
       inkscape:connector-curvature="0"
       sodipodi:nodetypes="ccssscscsscscsssscsssssss" />
    <g
       id="g822"
       transform="matrix(1.1012291,0,0,0.94620001,-0.25184695,15.576013)"
       style="fill:#3f51b5;fill-opacity:1">
      <path
         d="M 4.3562858,285.63202 H 3.6658725 v -0.50631 h 0.6904133 z m 0,2.96759 H 3.6658725 v -2.81254 h 0.6904133 z"
         style="font-style:normal;font-variant:normal;font-weight:normal;font-stretch:normal;font-size:3.10055041px;line-height:1.25;font-family:Haettenschweiler;-inkscape-font-specification:'Haettenschweiler, Normal';font-variant-ligatures:normal;font-variant-caps:normal;font-variant-numeric:normal;font-feature-settings:normal;text-align:start;letter-spacing:0px;word-spacing:0px;writing-mode:lr-tb;text-anchor:start;fill:#3f51b5;fill-opacity:1;stroke:none;stroke-width:0.12403302"
         id="path975-1"
         inkscape:connector-curvature="0" />
      <path
         d="M 6.1150337,288.59961 H 5.5942036 l -0.058085,-0.0944 q -0.1768478,0.13329 -0.4021317,0.13329 -0.2640554,0 -0.450584,-0.12353 -0.1841123,-0.12353 -0.1841123,-0.33673 v -2.02039 q 0,-0.17927 0.145293,-0.28343 0.1478531,-0.10655 0.3561114,-0.10655 0.2858654,0 0.4263579,0.10415 v -0.74615 h 0.687997 z m -0.6879971,-0.52569 v -1.74663 q 0,-0.12354 -0.118731,-0.12354 -0.1211308,0 -0.1211308,0.12835 v 1.74179 q 0,0.12835 0.1211308,0.12835 0.118731,0 0.118731,-0.12835 z"
         style="font-style:normal;font-variant:normal;font-weight:normal;font-stretch:normal;font-size:3.10055041px;line-height:1.25;font-family:Haettenschweiler;-inkscape-font-specification:'Haettenschweiler, Normal';font-variant-ligatures:normal;font-variant-caps:normal;font-variant-numeric:normal;font-feature-settings:normal;text-align:start;letter-spacing:0px;word-spacing:0px;writing-mode:lr-tb;text-anchor:start;fill:#3f51b5;fill-opacity:1;stroke:none;stroke-width:0.12403302"
         id="path977-9"
         inkscape:connector-curvature="0" />
    </g>
    <g
       aria-label="1 "
       style="font-style:normal;font-variant:normal;font-weight:normal;font-stretch:normal;font-size:5.6538682px;line-height:1.25;font-family:Haettenschweiler;-inkscape-font-specification:'Haettenschweiler, Normal';font-variant-ligatures:normal;font-variant-caps:normal;font-variant-numeric:normal;font-feature-settings:normal;text-align:start;letter-spacing:0px;word-spacing:0px;writing-mode:lr-tb;text-anchor:start;fill:#3f51b5;fill-opacity:1;stroke:none;stroke-width:0.14134666"
       id="text913-9"
       transform="matrix(1.196895,0,0,1.196895,-128.41217,138.61693)">
      <path
         d="m 114.82172,130.91345 h -0.86961 v -2.70344 -0.19803 h -0.33404 V 127.435 c 0.12699,0 0.23374,-0.0543 0.32024,-0.16288 0.0883,-0.10859 0.13251,-0.21441 0.13251,-0.31748 h 0.7509 z"
         style="font-style:normal;font-variant:normal;font-weight:normal;font-stretch:normal;font-size:5.6538682px;font-family:Haettenschweiler;-inkscape-font-specification:'Haettenschweiler, Normal';font-variant-ligatures:normal;font-variant-caps:normal;font-variant-numeric:normal;font-feature-settings:normal;text-align:start;writing-mode:lr-tb;text-anchor:start;fill:#3f51b5;fill-opacity:1;stroke-width:0.14134666"
         id="path982-6"
         inkscape:connector-curvature="0"
         sodipodi:nodetypes="cccccccccc" />
    </g>
    <path
       inkscape:connector-curvature="0"
       style="opacity:1;fill:#3f51b5;fill-opacity:1;stroke:none;stroke-width:0.57419008;stroke-linecap:round;stroke-linejoin:miter;stroke-miterlimit:4;stroke-dasharray:none;stroke-dashoffset:0;stroke-opacity:1;paint-order:fill markers stroke"
       d="m 5.1339826,288.80387 -1.9495506,2.76949 1.1992887,-0.12005 v 3.88307 h 1.4992788 v -3.88307 l 1.199911,0.12005 z"
       id="rect967-8" />
  </g>
</svg>
