<?xml version="1.0" encoding="UTF-8" standalone="no"?>
<!-- Created with Inkscape (http://www.inkscape.org/) -->

<svg
   xmlns:dc="http://purl.org/dc/elements/1.1/"
   xmlns:cc="http://creativecommons.org/ns#"
   xmlns:rdf="http://www.w3.org/1999/02/22-rdf-syntax-ns#"
   xmlns:svg="http://www.w3.org/2000/svg"
   xmlns="http://www.w3.org/2000/svg"
   xmlns:sodipodi="http://sodipodi.sourceforge.net/DTD/sodipodi-0.dtd"
   xmlns:inkscape="http://www.inkscape.org/namespaces/inkscape"
   width="50"
   height="50"
   viewBox="0 0 13.229166 13.229167"
   version="1.1"
   id="svg2291"
   inkscape:version="0.92.4 (5da689c313, 2019-01-14)"
   sodipodi:docname="sortDown.svg">
  <defs
     id="defs2285" />
  <sodipodi:namedview
     id="base"
     pagecolor="#ffffff"
     bordercolor="#666666"
     borderopacity="1.0"
     inkscape:pageopacity="0.0"
     inkscape:pageshadow="2"
     inkscape:zoom="7.9195959"
     inkscape:cx="39.409186"
     inkscape:cy="9.281185"
     inkscape:document-units="mm"
     inkscape:current-layer="layer1"
     showgrid="false"
     inkscape:snap-bbox="true"
     inkscape:bbox-paths="true"
     inkscape:bbox-nodes="true"
     inkscape:snap-bbox-edge-midpoints="true"
     inkscape:snap-bbox-midpoints="true"
     inkscape:object-paths="true"
     inkscape:snap-intersection-paths="true"
     inkscape:snap-smooth-nodes="true"
     inkscape:snap-midpoints="true"
     inkscape:snap-center="true"
     inkscape:snap-object-midpoints="true"
     inkscape:snap-global="true"
     units="px"
     inkscape:showpageshadow="false"
     inkscape:snap-page="true"
     inkscape:window-width="1920"
     inkscape:window-height="1001"
     inkscape:window-x="-9"
     inkscape:window-y="-9"
     inkscape:window-maximized="1" />
  <metadata
     id="metadata2288">
    <rdf:RDF>
      <cc:Work
         rdf:about="">
        <dc:format>image/svg+xml</dc:format>
        <dc:type
           rdf:resource="http://purl.org/dc/dcmitype/StillImage" />
        <dc:title></dc:title>
      </cc:Work>
    </rdf:RDF>
  </metadata>
  <g
     inkscape:label="Layer 1"
     inkscape:groupmode="layer"
     id="layer1"
     transform="translate(0,-283.77082)">
    <g
       id="g2874"
       transform="translate(-279.89136,85.611593)">
      <rect
         ry="2.9990022"
         y="198.47591"
         x="280.20804"
         height="12.595809"
         width="12.595809"
         id="rect965"
         style="opacity:1;fill:none;fill-opacity:1;stroke:#c8ccea;stroke-width:0.63335693;stroke-linecap:round;stroke-linejoin:miter;stroke-miterlimit:4;stroke-dasharray:none;stroke-dashoffset:0;stroke-opacity:1;paint-order:fill markers stroke" />
      <path
         sodipodi:nodetypes="ccssscscsscscsssscsssssss"
         inkscape:connector-curvature="0"
         id="path985"
         style="font-style:normal;font-variant:normal;font-weight:normal;font-stretch:normal;font-size:5.6538682px;line-height:1.25;font-family:Haettenschweiler;-inkscape-font-specification:'Haettenschweiler, Normal';font-variant-ligatures:normal;font-variant-caps:normal;font-variant-numeric:normal;font-feature-settings:normal;text-align:start;letter-spacing:0px;word-spacing:0px;writing-mode:lr-tb;text-anchor:start;fill:#939cd6;fill-opacity:1;stroke:none;stroke-width:0.16917713"
         d="m 287.20814,207.67276 h 1.01439 v 1.20604 c 0,0.10353 0.0584,0.15531 0.17513,0.15531 0.11455,0 0.17183,-0.0518 0.17183,-0.15531 v -1.40759 c -0.0749,0.0794 -0.21481,0.11897 -0.41964,0.11897 -0.27756,0 -0.50446,-0.0661 -0.68068,-0.19826 -0.17401,-0.13437 -0.26103,-0.3205 -0.26103,-0.55841 v -1.10362 c 0,-0.27536 0.10904,-0.48682 0.32711,-0.63441 0.21809,-0.14979 0.50336,-0.2247 0.85581,-0.2247 0.35685,0 0.64432,0.0738 0.86241,0.22139 0.22027,0.14759 0.33041,0.35796 0.33041,0.63111 v 3.05312 c 0,0.61239 -0.39981,0.91858 -1.19943,0.91858 -0.78421,0 -1.17631,-0.30399 -1.17631,-0.91197 z m 1.36135,-0.86571 v -1.13666 c 0,-0.10353 -0.0572,-0.15531 -0.17183,-0.15531 -0.11669,0 -0.17513,0.0518 -0.17513,0.15531 v 1.13666 c 0,0.10353 0.0584,0.1553 0.17513,0.1553 0.11455,0 0.17183,-0.0518 0.17183,-0.1553 z" />
      <path
         d="m 284.62548,199.89283 h -0.51643 v -0.37872 h 0.51643 z m 0,2.21973 h -0.51643 v -2.10376 h 0.51643 z"
         style="font-style:normal;font-variant:normal;font-weight:normal;font-stretch:normal;font-size:3.10055041px;line-height:1.25;font-family:Haettenschweiler;-inkscape-font-specification:'Haettenschweiler, Normal';font-variant-ligatures:normal;font-variant-caps:normal;font-variant-numeric:normal;font-feature-settings:normal;text-align:start;letter-spacing:0px;word-spacing:0px;writing-mode:lr-tb;text-anchor:start;fill:#939cd6;fill-opacity:1;stroke:none;stroke-width:0.09277584"
         id="path975"
         inkscape:connector-curvature="0" />
      <path
         d="m 285.94101,202.11256 h -0.38958 l -0.0434,-0.0706 q -0.13229,0.0997 -0.3008,0.0997 -0.19751,0 -0.33703,-0.0924 -0.13771,-0.0924 -0.13771,-0.25187 v -1.51124 q 0,-0.13409 0.10867,-0.212 0.1106,-0.0797 0.26637,-0.0797 0.21383,0 0.31891,0.0779 v -0.55811 h 0.51462 z m -0.51462,-0.39321 v -1.30647 q 0,-0.0924 -0.0888,-0.0924 -0.0906,0 -0.0906,0.096 v 1.30285 q 0,0.096 0.0906,0.096 0.0888,0 0.0888,-0.096 z"
         style="font-style:normal;font-variant:normal;font-weight:normal;font-stretch:normal;font-size:3.10055041px;line-height:1.25;font-family:Haettenschweiler;-inkscape-font-specification:'Haettenschweiler, Normal';font-variant-ligatures:normal;font-variant-caps:normal;font-variant-numeric:normal;font-feature-settings:normal;text-align:start;letter-spacing:0px;word-spacing:0px;writing-mode:lr-tb;text-anchor:start;fill:#939cd6;fill-opacity:1;stroke:none;stroke-width:0.09277584"
         id="path977"
         inkscape:connector-curvature="0" />
      <path
         id="rect967"
         d="m 285.02535,209.72478 -1.94955,-2.83959 1.19929,0.12309 v -3.98137 h 1.49928 v 3.98137 l 1.19991,-0.12309 z"
         style="opacity:1;fill:#939cd6;fill-opacity:1;stroke:none;stroke-width:0.5814122;stroke-linecap:round;stroke-linejoin:miter;stroke-miterlimit:4;stroke-dasharray:none;stroke-dashoffset:0;stroke-opacity:1;paint-order:fill markers stroke"
         inkscape:connector-curvature="0" />
      <g
         aria-label="1 "
         style="font-style:normal;font-variant:normal;font-weight:normal;font-stretch:normal;font-size:5.6538682px;line-height:1.25;font-family:Haettenschweiler;-inkscape-font-specification:'Haettenschweiler, Normal';font-variant-ligatures:normal;font-variant-caps:normal;font-variant-numeric:normal;font-feature-settings:normal;text-align:start;letter-spacing:0px;word-spacing:0px;writing-mode:lr-tb;text-anchor:start;fill:#939cd6;fill-opacity:1;stroke:none;stroke-width:0.14134666"
         id="g2865"
         transform="matrix(1.196895,0,0,1.196895,151.68679,47.678436)">
        <path
           d="m 114.82172,130.91345 h -0.86961 v -2.70344 -0.19803 h -0.33404 V 127.435 c 0.12699,0 0.23374,-0.0543 0.32024,-0.16288 0.0883,-0.10859 0.13251,-0.21441 0.13251,-0.31748 h 0.7509 z"
           style="font-style:normal;font-variant:normal;font-weight:normal;font-stretch:normal;font-size:5.6538682px;font-family:Haettenschweiler;-inkscape-font-specification:'Haettenschweiler, Normal';font-variant-ligatures:normal;font-variant-caps:normal;font-variant-numeric:normal;font-feature-settings:normal;text-align:start;writing-mode:lr-tb;text-anchor:start;fill:#939cd6;fill-opacity:1;stroke-width:0.14134666"
           id="path2863"
           inkscape:connector-curvature="0"
           sodipodi:nodetypes="cccccccccc" />
      </g>
    </g>
  </g>
</svg>
